STARTFONT 2.1
COMMENT Recovered from ar1.1:HIPO10 1 (Xerox Alto CONVERT font source (AL) recovered from MIT CADR AR1 ARC!!!)
FONT MIT-CADR-HIPO10-AL-AR1
SIZE 15 72 72
FONTBOUNDINGBOX 14 15 0 -4
STARTPROPERTIES 2
FONT_ASCENT 11
FONT_DESCENT 4
ENDPROPERTIES
CHARS 128
STARTCHAR C0000
ENCODING -1 0
SWIDTH 0 0
DWIDTH 0 0
BBX 0 15 0 -4
BITMAP
00
00
00
00
00
00
00
00
00
00
00
00
00
00
00
ENDCHAR
STARTCHAR C0001
ENCODING -1 1
SWIDTH 0 0
DWIDTH 0 0
BBX 0 15 0 -4
BITMAP
00
00
00
00
00
00
00
00
00
00
00
00
00
00
00
ENDCHAR
STARTCHAR C0002
ENCODING -1 2
SWIDTH 0 0
DWIDTH 0 0
BBX 0 15 0 -4
BITMAP
00
00
00
00
00
00
00
00
00
00
00
00
00
00
00
ENDCHAR
STARTCHAR C0003
ENCODING -1 3
SWIDTH 0 0
DWIDTH 0 0
BBX 0 15 0 -4
BITMAP
00
00
00
00
00
00
00
00
00
00
00
00
00
00
00
ENDCHAR
STARTCHAR C0004
ENCODING -1 4
SWIDTH 0 0
DWIDTH 0 0
BBX 0 15 0 -4
BITMAP
00
00
00
00
00
00
00
00
00
00
00
00
00
00
00
ENDCHAR
STARTCHAR C0005
ENCODING -1 5
SWIDTH 0 0
DWIDTH 0 0
BBX 0 15 0 -4
BITMAP
00
00
00
00
00
00
00
00
00
00
00
00
00
00
00
ENDCHAR
STARTCHAR C0006
ENCODING -1 6
SWIDTH 0 0
DWIDTH 0 0
BBX 0 15 0 -4
BITMAP
00
00
00
00
00
00
00
00
00
00
00
00
00
00
00
ENDCHAR
STARTCHAR C0007
ENCODING -1 7
SWIDTH 0 0
DWIDTH 0 0
BBX 0 15 0 -4
BITMAP
00
00
00
00
00
00
00
00
00
00
00
00
00
00
00
ENDCHAR
STARTCHAR C0008
ENCODING -1 8
SWIDTH 0 0
DWIDTH 0 0
BBX 0 15 0 -4
BITMAP
00
00
00
00
00
00
00
00
00
00
00
00
00
00
00
ENDCHAR
STARTCHAR C0009
ENCODING -1 9
SWIDTH 0 0
DWIDTH 0 0
BBX 0 15 0 -4
BITMAP
00
00
00
00
00
00
00
00
00
00
00
00
00
00
00
ENDCHAR
STARTCHAR C000A
ENCODING -1 10
SWIDTH 0 0
DWIDTH 0 0
BBX 0 15 0 -4
BITMAP
00
00
00
00
00
00
00
00
00
00
00
00
00
00
00
ENDCHAR
STARTCHAR C000B
ENCODING -1 11
SWIDTH 0 0
DWIDTH 0 0
BBX 0 15 0 -4
BITMAP
00
00
00
00
00
00
00
00
00
00
00
00
00
00
00
ENDCHAR
STARTCHAR C000C
ENCODING -1 12
SWIDTH 0 0
DWIDTH 0 0
BBX 0 15 0 -4
BITMAP
00
00
00
00
00
00
00
00
00
00
00
00
00
00
00
ENDCHAR
STARTCHAR C000D
ENCODING -1 13
SWIDTH 0 0
DWIDTH 0 0
BBX 0 15 0 -4
BITMAP
00
00
00
00
00
00
00
00
00
00
00
00
00
00
00
ENDCHAR
STARTCHAR C000E
ENCODING -1 14
SWIDTH 0 0
DWIDTH 0 0
BBX 0 15 0 -4
BITMAP
00
00
00
00
00
00
00
00
00
00
00
00
00
00
00
ENDCHAR
STARTCHAR C000F
ENCODING -1 15
SWIDTH 0 0
DWIDTH 0 0
BBX 0 15 0 -4
BITMAP
00
00
00
00
00
00
00
00
00
00
00
00
00
00
00
ENDCHAR
STARTCHAR C0010
ENCODING -1 16
SWIDTH 0 0
DWIDTH 0 0
BBX 0 15 0 -4
BITMAP
00
00
00
00
00
00
00
00
00
00
00
00
00
00
00
ENDCHAR
STARTCHAR C0011
ENCODING -1 17
SWIDTH 0 0
DWIDTH 0 0
BBX 0 15 0 -4
BITMAP
00
00
00
00
00
00
00
00
00
00
00
00
00
00
00
ENDCHAR
STARTCHAR C0012
ENCODING -1 18
SWIDTH 0 0
DWIDTH 0 0
BBX 0 15 0 -4
BITMAP
00
00
00
00
00
00
00
00
00
00
00
00
00
00
00
ENDCHAR
STARTCHAR C0013
ENCODING -1 19
SWIDTH 0 0
DWIDTH 0 0
BBX 0 15 0 -4
BITMAP
00
00
00
00
00
00
00
00
00
00
00
00
00
00
00
ENDCHAR
STARTCHAR C0014
ENCODING -1 20
SWIDTH 0 0
DWIDTH 0 0
BBX 0 15 0 -4
BITMAP
00
00
00
00
00
00
00
00
00
00
00
00
00
00
00
ENDCHAR
STARTCHAR C0015
ENCODING -1 21
SWIDTH 0 0
DWIDTH 0 0
BBX 0 15 0 -4
BITMAP
00
00
00
00
00
00
00
00
00
00
00
00
00
00
00
ENDCHAR
STARTCHAR C0016
ENCODING -1 22
SWIDTH 0 0
DWIDTH 0 0
BBX 0 15 0 -4
BITMAP
00
00
00
00
00
00
00
00
00
00
00
00
00
00
00
ENDCHAR
STARTCHAR C0017
ENCODING -1 23
SWIDTH 0 0
DWIDTH 0 0
BBX 0 15 0 -4
BITMAP
00
00
00
00
00
00
00
00
00
00
00
00
00
00
00
ENDCHAR
STARTCHAR C0018
ENCODING -1 24
SWIDTH 0 0
DWIDTH 0 0
BBX 0 15 0 -4
BITMAP
00
00
00
00
00
00
00
00
00
00
00
00
00
00
00
ENDCHAR
STARTCHAR C0019
ENCODING -1 25
SWIDTH 0 0
DWIDTH 0 0
BBX 0 15 0 -4
BITMAP
00
00
00
00
00
00
00
00
00
00
00
00
00
00
00
ENDCHAR
STARTCHAR C001A
ENCODING -1 26
SWIDTH 0 0
DWIDTH 0 0
BBX 0 15 0 -4
BITMAP
00
00
00
00
00
00
00
00
00
00
00
00
00
00
00
ENDCHAR
STARTCHAR C001B
ENCODING -1 27
SWIDTH 0 0
DWIDTH 0 0
BBX 0 15 0 -4
BITMAP
00
00
00
00
00
00
00
00
00
00
00
00
00
00
00
ENDCHAR
STARTCHAR C001C
ENCODING -1 28
SWIDTH 0 0
DWIDTH 0 0
BBX 0 15 0 -4
BITMAP
00
00
00
00
00
00
00
00
00
00
00
00
00
00
00
ENDCHAR
STARTCHAR C001D
ENCODING -1 29
SWIDTH 0 0
DWIDTH 0 0
BBX 0 15 0 -4
BITMAP
00
00
00
00
00
00
00
00
00
00
00
00
00
00
00
ENDCHAR
STARTCHAR C001E
ENCODING -1 30
SWIDTH 0 0
DWIDTH 0 0
BBX 0 15 0 -4
BITMAP
00
00
00
00
00
00
00
00
00
00
00
00
00
00
00
ENDCHAR
STARTCHAR C001F
ENCODING -1 31
SWIDTH 0 0
DWIDTH 0 0
BBX 0 15 0 -4
BITMAP
00
00
00
00
00
00
00
00
00
00
00
00
00
00
00
ENDCHAR
STARTCHAR C0020
ENCODING -1 32
SWIDTH 467 0
DWIDTH 7 0
BBX 7 15 0 -4
BITMAP
00
00
00
00
00
00
00
00
00
00
00
00
00
00
00
ENDCHAR
STARTCHAR C0021
ENCODING -1 33
SWIDTH 400 0
DWIDTH 6 0
BBX 6 15 0 -4
BITMAP
00
20
20
20
20
20
20
20
00
20
20
00
00
00
00
ENDCHAR
STARTCHAR C0022
ENCODING -1 34
SWIDTH 467 0
DWIDTH 7 0
BBX 7 15 0 -4
BITMAP
00
48
48
48
48
00
00
00
00
00
00
00
00
00
00
ENDCHAR
STARTCHAR C0023
ENCODING -1 35
SWIDTH 800 0
DWIDTH 12 0
BBX 12 15 0 -4
BITMAP
0000
0480
0900
0900
3F80
1200
7F00
2400
2400
4800
0000
0000
0000
0000
0000
ENDCHAR
STARTCHAR C0024
ENCODING -1 36
SWIDTH 467 0
DWIDTH 7 0
BBX 7 15 0 -4
BITMAP
10
38
54
50
50
30
18
14
14
54
38
10
00
00
00
ENDCHAR
STARTCHAR C0025
ENCODING -1 37
SWIDTH 600 0
DWIDTH 9 0
BBX 9 15 0 -4
BITMAP
0000
2200
5C00
2400
0800
0800
1000
1000
2000
2400
4A00
4400
0000
0000
0000
ENDCHAR
STARTCHAR C0026
ENCODING -1 38
SWIDTH 600 0
DWIDTH 9 0
BBX 9 15 0 -4
BITMAP
0000
0000
0000
3000
4800
4800
3000
2A00
4400
4600
3900
0000
0000
0000
0000
ENDCHAR
STARTCHAR C0027
ENCODING -1 39
SWIDTH 333 0
DWIDTH 5 0
BBX 5 15 0 -4
BITMAP
00
20
20
20
20
40
00
00
00
00
00
00
00
00
00
ENDCHAR
STARTCHAR C0028
ENCODING -1 40
SWIDTH 533 0
DWIDTH 8 0
BBX 8 15 0 -4
BITMAP
00
08
10
20
40
40
40
40
40
40
20
10
08
00
00
ENDCHAR
STARTCHAR C0029
ENCODING -1 41
SWIDTH 533 0
DWIDTH 8 0
BBX 8 15 0 -4
BITMAP
00
20
10
08
04
04
04
04
04
04
08
10
20
00
00
ENDCHAR
STARTCHAR C002A
ENCODING -1 42
SWIDTH 667 0
DWIDTH 10 0
BBX 10 15 0 -4
BITMAP
0000
0000
4900
2A00
1C00
7F00
1C00
2A00
4900
0000
0000
0000
0000
0000
0000
ENDCHAR
STARTCHAR C002B
ENCODING -1 43
SWIDTH 467 0
DWIDTH 7 0
BBX 7 15 0 -4
BITMAP
00
00
00
10
10
7C
10
10
00
00
00
00
00
00
00
ENDCHAR
STARTCHAR C002C
ENCODING -1 44
SWIDTH 467 0
DWIDTH 7 0
BBX 7 15 0 -4
BITMAP
00
00
00
00
00
00
00
00
00
60
20
20
40
00
00
ENDCHAR
STARTCHAR C002D
ENCODING -1 45
SWIDTH 467 0
DWIDTH 7 0
BBX 7 15 0 -4
BITMAP
00
00
00
00
00
00
7C
00
00
00
00
00
00
00
00
ENDCHAR
STARTCHAR C002E
ENCODING -1 46
SWIDTH 467 0
DWIDTH 7 0
BBX 7 15 0 -4
BITMAP
00
00
00
00
00
00
00
00
00
30
30
00
00
00
00
ENDCHAR
STARTCHAR C002F
ENCODING -1 47
SWIDTH 533 0
DWIDTH 8 0
BBX 8 15 0 -4
BITMAP
00
02
04
04
08
08
10
10
20
20
40
40
80
00
00
ENDCHAR
STARTCHAR C0030
ENCODING -1 48
SWIDTH 467 0
DWIDTH 7 0
BBX 7 15 0 -4
BITMAP
04
38
54
44
44
44
44
44
44
44
38
00
00
00
00
ENDCHAR
STARTCHAR C0031
ENCODING -1 49
SWIDTH 467 0
DWIDTH 7 0
BBX 7 15 0 -4
BITMAP
00
10
30
50
10
10
10
10
10
10
7C
00
00
00
00
ENDCHAR
STARTCHAR C0032
ENCODING -1 50
SWIDTH 467 0
DWIDTH 7 0
BBX 7 15 0 -4
BITMAP
00
38
44
04
04
08
10
20
40
40
7C
00
00
00
00
ENDCHAR
STARTCHAR C0033
ENCODING -1 51
SWIDTH 467 0
DWIDTH 7 0
BBX 7 15 0 -4
BITMAP
00
78
84
04
04
38
04
04
04
84
78
00
00
00
00
ENDCHAR
STARTCHAR C0034
ENCODING -1 52
SWIDTH 467 0
DWIDTH 7 0
BBX 7 15 0 -4
BITMAP
00
08
18
28
28
48
88
FC
08
08
08
00
00
00
00
ENDCHAR
STARTCHAR C0035
ENCODING -1 53
SWIDTH 467 0
DWIDTH 7 0
BBX 7 15 0 -4
BITMAP
00
7C
40
40
78
04
04
04
04
44
38
00
00
00
00
ENDCHAR
STARTCHAR C0036
ENCODING -1 54
SWIDTH 467 0
DWIDTH 7 0
BBX 7 15 0 -4
BITMAP
00
38
44
40
40
58
64
44
44
44
38
00
00
00
00
ENDCHAR
STARTCHAR C0037
ENCODING -1 55
SWIDTH 467 0
DWIDTH 7 0
BBX 7 15 0 -4
BITMAP
00
FC
04
08
08
10
10
20
20
40
40
00
00
00
00
ENDCHAR
STARTCHAR C0038
ENCODING -1 56
SWIDTH 467 0
DWIDTH 7 0
BBX 7 15 0 -4
BITMAP
00
38
44
44
28
10
28
44
44
44
38
00
00
00
00
ENDCHAR
STARTCHAR C0039
ENCODING -1 57
SWIDTH 467 0
DWIDTH 7 0
BBX 7 15 0 -4
BITMAP
00
38
44
44
44
44
3C
04
04
44
38
00
00
00
00
ENDCHAR
STARTCHAR C003A
ENCODING -1 58
SWIDTH 533 0
DWIDTH 8 0
BBX 8 15 0 -4
BITMAP
00
00
00
10
38
10
00
00
10
38
10
00
00
00
00
ENDCHAR
STARTCHAR C003B
ENCODING -1 59
SWIDTH 467 0
DWIDTH 7 0
BBX 7 15 0 -4
BITMAP
00
00
00
00
00
00
00
60
00
60
20
20
40
00
00
ENDCHAR
STARTCHAR C003C
ENCODING -1 60
SWIDTH 533 0
DWIDTH 8 0
BBX 8 15 0 -4
BITMAP
00
00
00
04
08
10
20
40
20
10
08
04
00
00
00
ENDCHAR
STARTCHAR C003D
ENCODING -1 61
SWIDTH 600 0
DWIDTH 9 0
BBX 9 15 0 -4
BITMAP
0000
0000
0000
0000
0000
7E00
0000
0000
7E00
0000
0000
0000
0000
0000
0000
ENDCHAR
STARTCHAR C003E
ENCODING -1 62
SWIDTH 533 0
DWIDTH 8 0
BBX 8 15 0 -4
BITMAP
00
00
00
40
20
10
08
04
08
10
20
40
00
00
00
ENDCHAR
STARTCHAR C003F
ENCODING -1 63
SWIDTH 533 0
DWIDTH 8 0
BBX 8 15 0 -4
BITMAP
00
00
38
44
44
04
08
10
10
10
00
10
00
00
00
ENDCHAR
STARTCHAR C0040
ENCODING -1 64
SWIDTH 733 0
DWIDTH 11 0
BBX 11 15 0 -4
BITMAP
0000
1E00
2100
4C80
5280
5280
5280
5280
4F00
2000
1F80
0000
0000
0000
0000
ENDCHAR
STARTCHAR C0041
ENCODING -1 65
SWIDTH 600 0
DWIDTH 9 0
BBX 9 15 0 -4
BITMAP
0000
0800
1400
2200
2200
4100
4100
7F00
4100
4100
4100
0000
0000
0000
0000
ENDCHAR
STARTCHAR C0042
ENCODING -1 66
SWIDTH 533 0
DWIDTH 8 0
BBX 8 15 0 -4
BITMAP
00
78
44
44
44
78
44
42
42
42
7C
00
00
00
00
ENDCHAR
STARTCHAR C0043
ENCODING -1 67
SWIDTH 733 0
DWIDTH 11 0
BBX 11 15 0 -4
BITMAP
0000
0000
2040
3FC0
2040
0000
1F00
0000
4080
7F80
4080
0000
0000
0000
0000
ENDCHAR
STARTCHAR C0044
ENCODING -1 68
SWIDTH 733 0
DWIDTH 11 0
BBX 11 15 0 -4
BITMAP
0000
0400
0400
0A00
0A00
1100
1100
2080
2080
4040
7FC0
0000
0000
0000
0000
ENDCHAR
STARTCHAR C0045
ENCODING -1 69
SWIDTH 467 0
DWIDTH 7 0
BBX 7 15 0 -4
BITMAP
00
7C
40
40
40
78
40
40
40
40
7C
00
00
00
00
ENDCHAR
STARTCHAR C0046
ENCODING -1 70
SWIDTH 600 0
DWIDTH 9 0
BBX 9 15 0 -4
BITMAP
0000
3E00
0800
1C00
2A00
4900
4900
2A00
1C00
0800
3E00
0000
0000
0000
0000
ENDCHAR
STARTCHAR C0047
ENCODING -1 71
SWIDTH 667 0
DWIDTH 10 0
BBX 10 15 0 -4
BITMAP
0000
7F80
2080
2000
2000
2000
2000
2000
2000
2000
7000
0000
0000
0000
0000
ENDCHAR
STARTCHAR C0048
ENCODING -1 72
SWIDTH 667 0
DWIDTH 10 0
BBX 10 15 0 -4
BITMAP
0000
4100
4100
4100
4100
7F00
4100
4100
4100
4100
4100
0000
0000
0000
0000
ENDCHAR
STARTCHAR C0049
ENCODING -1 73
SWIDTH 467 0
DWIDTH 7 0
BBX 7 15 0 -4
BITMAP
00
7C
10
10
10
10
10
10
10
10
7C
00
00
00
00
ENDCHAR
STARTCHAR C004A
ENCODING -1 74
SWIDTH 0 0
DWIDTH 0 0
BBX 0 15 0 -4
BITMAP
00
00
00
00
00
00
00
00
00
00
00
00
00
00
00
ENDCHAR
STARTCHAR C004B
ENCODING -1 75
SWIDTH 533 0
DWIDTH 8 0
BBX 8 15 0 -4
BITMAP
00
42
44
48
50
60
60
50
48
44
42
00
00
00
00
ENDCHAR
STARTCHAR C004C
ENCODING -1 76
SWIDTH 933 0
DWIDTH 14 0
BBX 14 15 0 -4
BITMAP
0000
0300
0300
0480
0480
0840
0840
1020
1020
2010
7038
0000
0000
0000
0000
ENDCHAR
STARTCHAR C004D
ENCODING -1 77
SWIDTH 667 0
DWIDTH 10 0
BBX 10 15 0 -4
BITMAP
0000
4100
6300
5500
4900
4100
4100
4100
4100
4100
4100
0000
0000
0000
0000
ENDCHAR
STARTCHAR C004E
ENCODING -1 78
SWIDTH 600 0
DWIDTH 9 0
BBX 9 15 0 -4
BITMAP
0000
4100
6100
5100
5100
4900
4900
4500
4500
4300
4100
0000
0000
0000
0000
ENDCHAR
STARTCHAR C004F
ENCODING -1 79
SWIDTH 600 0
DWIDTH 9 0
BBX 9 15 0 -4
BITMAP
0000
1C00
2200
4100
4100
4100
4100
4100
4100
2200
1C00
0000
0000
0000
0000
ENDCHAR
STARTCHAR C0050
ENCODING -1 80
SWIDTH 800 0
DWIDTH 12 0
BBX 12 15 0 -4
BITMAP
0000
7FE0
1080
1080
1080
1080
1080
1080
1080
1080
39C0
0000
0000
0000
0000
ENDCHAR
STARTCHAR C0051
ENCODING -1 81
SWIDTH 600 0
DWIDTH 9 0
BBX 9 15 0 -4
BITMAP
0000
0000
1C00
2200
4100
4100
7F00
4100
4100
2200
1C00
0000
0000
0000
0000
ENDCHAR
STARTCHAR C0052
ENCODING -1 82
SWIDTH 533 0
DWIDTH 8 0
BBX 8 15 0 -4
BITMAP
00
7C
42
42
42
42
7C
40
40
40
40
00
00
00
00
ENDCHAR
STARTCHAR C0053
ENCODING -1 83
SWIDTH 667 0
DWIDTH 10 0
BBX 10 15 0 -4
BITMAP
0000
7F80
2080
1000
0800
0400
0800
1000
2000
4080
7F80
0000
0000
0000
0000
ENDCHAR
STARTCHAR C0054
ENCODING -1 84
SWIDTH 600 0
DWIDTH 9 0
BBX 9 15 0 -4
BITMAP
0000
7F00
0800
0800
0800
0800
0800
0800
0800
0800
0800
0000
0000
0000
0000
ENDCHAR
STARTCHAR C0055
ENCODING -1 85
SWIDTH 733 0
DWIDTH 11 0
BBX 11 15 0 -4
BITMAP
0000
3180
6AC0
4A40
0400
0400
0400
0400
0400
0400
0E00
0000
0000
0000
0000
ENDCHAR
STARTCHAR C0056
ENCODING -1 86
SWIDTH 0 0
DWIDTH 0 0
BBX 0 15 0 -4
BITMAP
00
00
00
00
00
00
00
00
00
00
00
00
00
00
00
ENDCHAR
STARTCHAR C0057
ENCODING -1 87
SWIDTH 800 0
DWIDTH 12 0
BBX 12 15 0 -4
BITMAP
0000
0F00
1080
2040
2040
2040
2040
1080
1080
0900
79E0
0000
0000
0000
0000
ENDCHAR
STARTCHAR C0058
ENCODING -1 88
SWIDTH 600 0
DWIDTH 9 0
BBX 9 15 0 -4
BITMAP
0000
4100
4100
2200
1400
0800
1400
2200
4100
4100
4100
0000
0000
0000
0000
ENDCHAR
STARTCHAR C0059
ENCODING -1 89
SWIDTH 867 0
DWIDTH 13 0
BBX 13 15 0 -4
BITMAP
0000
0700
6230
2220
2220
1240
0F80
0200
0200
0200
0700
0000
0000
0000
0000
ENDCHAR
STARTCHAR C005A
ENCODING -1 90
SWIDTH 533 0
DWIDTH 8 0
BBX 8 15 0 -4
BITMAP
00
7E
02
02
04
08
10
20
40
40
7E
00
00
00
00
ENDCHAR
STARTCHAR C005B
ENCODING -1 91
SWIDTH 533 0
DWIDTH 8 0
BBX 8 15 0 -4
BITMAP
78
40
40
40
40
40
40
40
40
40
40
40
78
00
00
ENDCHAR
STARTCHAR C005C
ENCODING -1 92
SWIDTH 533 0
DWIDTH 8 0
BBX 8 15 0 -4
BITMAP
00
80
40
40
20
20
10
10
08
08
04
04
02
00
00
ENDCHAR
STARTCHAR C005D
ENCODING -1 93
SWIDTH 533 0
DWIDTH 8 0
BBX 8 15 0 -4
BITMAP
3C
04
04
04
04
04
04
04
04
04
04
04
3C
00
00
ENDCHAR
STARTCHAR C005E
ENCODING -1 94
SWIDTH 533 0
DWIDTH 8 0
BBX 8 15 0 -4
BITMAP
00
00
10
38
54
10
10
10
10
10
00
00
00
00
00
ENDCHAR
STARTCHAR C005F
ENCODING -1 95
SWIDTH 667 0
DWIDTH 10 0
BBX 10 15 0 -4
BITMAP
0000
0000
0000
1000
2000
7F00
2000
1000
0000
0000
0000
0000
0000
0000
0000
ENDCHAR
STARTCHAR C0060
ENCODING -1 96
SWIDTH 0 0
DWIDTH 0 0
BBX 0 15 0 -4
BITMAP
00
00
00
00
00
00
00
00
00
00
00
00
00
00
00
ENDCHAR
STARTCHAR C0061
ENCODING -1 97
SWIDTH 800 0
DWIDTH 12 0
BBX 12 15 0 -4
BITMAP
0000
0000
0000
0080
1C80
2280
4100
4100
4100
22A0
1C40
0000
0000
0000
0000
ENDCHAR
STARTCHAR C0062
ENCODING -1 98
SWIDTH 533 0
DWIDTH 8 0
BBX 8 15 0 -4
BITMAP
00
00
1C
22
42
42
4C
42
42
42
5C
40
40
40
00
ENDCHAR
STARTCHAR C0063
ENCODING -1 99
SWIDTH 467 0
DWIDTH 7 0
BBX 7 15 0 -4
BITMAP
20
20
38
40
40
40
38
40
40
40
38
04
04
18
00
ENDCHAR
STARTCHAR C0064
ENCODING -1 100
SWIDTH 533 0
DWIDTH 8 0
BBX 8 15 0 -4
BITMAP
00
18
24
20
30
28
44
44
44
44
38
00
00
00
00
ENDCHAR
STARTCHAR C0065
ENCODING -1 101
SWIDTH 467 0
DWIDTH 7 0
BBX 7 15 0 -4
BITMAP
00
00
00
38
44
40
30
40
40
44
38
00
00
00
00
ENDCHAR
STARTCHAR C0066
ENCODING -1 102
SWIDTH 733 0
DWIDTH 11 0
BBX 11 15 0 -4
BITMAP
0000
0000
0400
0400
1F00
2480
4440
4440
4440
2480
1F00
0400
0400
0000
0000
ENDCHAR
STARTCHAR C0067
ENCODING -1 103
SWIDTH 600 0
DWIDTH 9 0
BBX 9 15 0 -4
BITMAP
0000
0000
0000
3100
4900
0600
0400
0C00
0C00
1400
1400
1400
1400
0800
0000
ENDCHAR
STARTCHAR C0068
ENCODING -1 104
SWIDTH 600 0
DWIDTH 9 0
BBX 9 15 0 -4
BITMAP
0000
0000
0000
0000
2E00
5100
1100
1100
1100
1100
1100
0100
0100
0100
0000
ENDCHAR
STARTCHAR C0069
ENCODING -1 105
SWIDTH 467 0
DWIDTH 7 0
BBX 7 15 0 -4
BITMAP
00
00
00
00
30
50
10
10
10
14
08
00
00
00
00
ENDCHAR
STARTCHAR C006A
ENCODING -1 106
SWIDTH 467 0
DWIDTH 7 0
BBX 7 15 0 -4
BITMAP
00
00
00
38
44
40
30
08
04
44
38
00
00
00
00
ENDCHAR
STARTCHAR C006B
ENCODING -1 107
SWIDTH 467 0
DWIDTH 7 0
BBX 7 15 0 -4
BITMAP
00
00
00
00
44
48
50
60
60
54
48
00
00
00
00
ENDCHAR
STARTCHAR C006C
ENCODING -1 108
SWIDTH 600 0
DWIDTH 9 0
BBX 9 15 0 -4
BITMAP
0000
6000
1000
1000
0800
1800
1400
2400
2200
4200
4100
0000
0000
0000
0000
ENDCHAR
STARTCHAR C006D
ENCODING -1 109
SWIDTH 533 0
DWIDTH 8 0
BBX 8 15 0 -4
BITMAP
00
00
00
00
44
44
44
44
44
4C
76
40
40
40
00
ENDCHAR
STARTCHAR C006E
ENCODING -1 110
SWIDTH 533 0
DWIDTH 8 0
BBX 8 15 0 -4
BITMAP
00
00
00
00
66
22
22
24
28
30
20
00
00
00
00
ENDCHAR
STARTCHAR C006F
ENCODING -1 111
SWIDTH 467 0
DWIDTH 7 0
BBX 7 15 0 -4
BITMAP
00
00
00
30
48
84
84
84
84
48
30
00
00
00
00
ENDCHAR
STARTCHAR C0070
ENCODING -1 112
SWIDTH 667 0
DWIDTH 10 0
BBX 10 15 0 -4
BITMAP
0000
0000
0000
0000
7F80
5200
1200
1200
1200
1200
1200
0000
0000
0000
0000
ENDCHAR
STARTCHAR C0071
ENCODING -1 113
SWIDTH 533 0
DWIDTH 8 0
BBX 8 15 0 -4
BITMAP
00
00
18
24
42
42
7E
42
42
24
18
00
00
00
00
ENDCHAR
STARTCHAR C0072
ENCODING -1 114
SWIDTH 533 0
DWIDTH 8 0
BBX 8 15 0 -4
BITMAP
00
00
00
00
1C
22
42
42
42
64
58
40
40
40
40
ENDCHAR
STARTCHAR C0073
ENCODING -1 115
SWIDTH 667 0
DWIDTH 10 0
BBX 10 15 0 -4
BITMAP
0000
0000
0000
0000
1F80
2200
4200
4200
4200
4400
3800
0000
0000
0000
0000
ENDCHAR
STARTCHAR C0074
ENCODING -1 116
SWIDTH 600 0
DWIDTH 9 0
BBX 9 15 0 -4
BITMAP
0000
0000
0000
3100
4E00
0800
0800
0800
0800
0A00
0400
0000
0000
0000
0000
ENDCHAR
STARTCHAR C0075
ENCODING -1 117
SWIDTH 533 0
DWIDTH 8 0
BBX 8 15 0 -4
BITMAP
00
00
00
00
66
22
22
22
22
24
38
00
00
00
00
ENDCHAR
STARTCHAR C0076
ENCODING -1 118
SWIDTH 0 0
DWIDTH 0 0
BBX 0 15 0 -4
BITMAP
00
00
00
00
00
00
00
00
00
00
00
00
00
00
00
ENDCHAR
STARTCHAR C0077
ENCODING -1 119
SWIDTH 600 0
DWIDTH 9 0
BBX 9 15 0 -4
BITMAP
0000
0000
0000
0000
2200
4900
4900
4900
4900
4900
3600
0000
0000
0000
0000
ENDCHAR
STARTCHAR C0078
ENCODING -1 120
SWIDTH 600 0
DWIDTH 9 0
BBX 9 15 0 -4
BITMAP
0000
0000
0000
4200
4200
2400
1800
1800
2400
4200
4200
0000
0000
0000
0000
ENDCHAR
STARTCHAR C0079
ENCODING -1 121
SWIDTH 667 0
DWIDTH 10 0
BBX 10 15 0 -4
BITMAP
0000
0000
0000
0000
0400
0400
6480
2480
2480
2480
1F00
0400
0400
0400
0000
ENDCHAR
STARTCHAR C007A
ENCODING -1 122
SWIDTH 467 0
DWIDTH 7 0
BBX 7 15 0 -4
BITMAP
00
10
14
18
20
40
40
40
40
20
18
04
18
00
00
ENDCHAR
STARTCHAR C007B
ENCODING -1 123
SWIDTH 467 0
DWIDTH 7 0
BBX 7 15 0 -4
BITMAP
00
1C
20
20
20
20
40
80
40
20
20
20
20
1C
00
ENDCHAR
STARTCHAR C007C
ENCODING -1 124
SWIDTH 533 0
DWIDTH 8 0
BBX 8 15 0 -4
BITMAP
10
10
10
10
10
10
10
10
10
10
10
10
10
10
00
ENDCHAR
STARTCHAR C007D
ENCODING -1 125
SWIDTH 467 0
DWIDTH 7 0
BBX 7 15 0 -4
BITMAP
00
E0
10
10
10
10
08
04
08
10
10
10
10
E0
00
ENDCHAR
STARTCHAR C007E
ENCODING -1 126
SWIDTH 667 0
DWIDTH 10 0
BBX 10 15 0 -4
BITMAP
0000
0000
3100
4900
4600
0000
0000
0000
0000
0000
0000
0000
0000
0000
0000
ENDCHAR
STARTCHAR C007F
ENCODING -1 127
SWIDTH 0 0
DWIDTH 0 0
BBX 0 15 0 -4
BITMAP
00
00
00
00
00
00
00
00
00
00
00
00
00
00
00
ENDCHAR
ENDFONT
